<?xml version="1.0" standalone="no"?>
<!DOCTYPE svg PUBLIC "-//W3C//DTD SVG 20010904//EN"
 "http://www.w3.org/TR/2001/REC-SVG-20010904/DTD/svg10.dtd">
<svg version="1.0" xmlns="http://www.w3.org/2000/svg"
 width="692.000000pt" height="778.000000pt" viewBox="0 0 692.000000 778.000000"
 preserveAspectRatio="xMidYMid meet">

<g transform="translate(0.000000,778.000000) scale(0.100000,-0.100000)"
fill="white" stroke="none">
<path d="M2753 7366 c-43 -16 -77 -49 -96 -94 -25 -60 -227 -591 -241 -634 -5
-17 -56 -18 -880 -18 -952 0 -912 2 -943 -57 -23 -45 1 -235 49 -378 87 -256
282 -479 521 -594 196 -95 266 -111 512 -119 192 -7 200 -8 198 -27 -1 -18
-12 -79 -33 -195 -5 -25 -14 -74 -20 -110 -6 -36 -15 -85 -20 -110 -5 -25 -14
-74 -20 -110 -6 -36 -15 -85 -20 -110 -5 -25 -14 -74 -20 -110 -6 -36 -15 -85
-20 -110 -5 -25 -14 -74 -20 -110 -6 -36 -15 -85 -20 -110 -5 -25 -14 -74 -20
-110 -6 -36 -15 -85 -20 -110 -5 -25 -13 -72 -19 -105 -12 -72 -28 -162 -41
-230 -6 -27 -14 -75 -20 -105 -5 -30 -14 -82 -20 -115 -6 -33 -16 -87 -21
-120 -6 -33 -14 -80 -19 -105 -5 -25 -13 -72 -19 -105 -6 -33 -16 -85 -21
-115 -6 -30 -16 -82 -21 -115 -6 -33 -14 -80 -19 -105 -5 -25 -14 -74 -20
-110 -15 -86 -30 -165 -40 -220 -5 -25 -13 -72 -19 -105 -5 -33 -13 -70 -17
-82 l-6 -23 911 0 c503 0 911 4 911 9 0 4 -17 41 -38 82 -52 104 -62 137 -62
210 0 141 89 279 215 333 16 7 43 18 58 25 45 18 145 12 209 -12 81 -31 138
-75 180 -138 48 -73 62 -120 62 -209 1 -79 -16 -133 -75 -247 l-28 -53 560 0
c307 0 559 2 559 5 0 2 -15 37 -34 77 -18 40 -36 81 -39 91 -4 9 -12 17 -19
17 -7 0 -172 2 -367 3 l-354 2 -2 106 c-3 117 -11 151 -61 256 -74 155 -244
278 -419 302 -216 31 -434 -69 -555 -253 -65 -101 -90 -187 -90 -312 l0 -104
-315 0 c-277 0 -316 2 -322 16 -3 8 -1 20 6 27 28 28 6 153 -38 222 -53 80
-139 128 -255 141 l-56 7 0 42 c0 67 -53 165 -89 165 -6 0 -11 4 -11 9 0 5
-19 12 -41 16 l-41 7 6 47 c3 25 10 69 15 96 9 47 17 92 42 238 6 34 15 85 19
112 5 28 14 79 20 115 7 36 16 88 20 115 5 28 14 79 20 115 7 36 15 85 20 110
5 25 13 74 20 110 6 36 15 88 20 115 4 28 13 79 20 115 6 36 15 92 21 125 6
33 15 83 19 110 5 28 14 77 20 110 12 66 26 148 40 239 10 66 23 87 42 68 16
-16 139 -16 175 0 39 18 90 66 108 101 17 34 21 162 5 172 -5 3 -10 13 -10 21
0 11 16 14 70 14 85 0 138 22 200 83 64 63 90 125 90 220 0 59 -5 88 -22 125
-27 56 -100 133 -146 152 -32 12 -33 15 -27 49 14 81 16 130 7 165 -6 20 -9
36 -6 36 2 0 25 -11 51 -24 134 -68 225 -79 398 -48 102 18 200 74 258 147
l28 35 198 0 199 0 34 -47 c19 -27 48 -55 64 -63 16 -8 31 -18 34 -21 14 -15
124 -49 197 -60 66 -10 96 -10 155 1 164 29 257 78 316 168 14 21 20 23 105
20 l91 -3 12 -65 c7 -36 18 -99 24 -140 6 -41 16 -94 21 -117 5 -23 9 -56 9
-72 0 -17 4 -50 10 -73 5 -24 14 -77 20 -118 6 -41 15 -100 20 -130 5 -30 14
-86 20 -125 6 -38 16 -95 20 -125 24 -144 24 -144 -12 -164 -103 -59 -158
-153 -158 -272 0 -90 28 -158 88 -219 l39 -38 -5 -68 c-4 -60 -2 -73 21 -112
30 -51 90 -95 141 -104 31 -5 37 -11 46 -42 5 -20 10 -49 10 -64 0 -16 4 -47
9 -70 5 -23 14 -76 21 -117 11 -76 19 -129 43 -274 l13 -80 72 -24 c40 -13 72
-28 72 -33 0 -5 -29 -9 -65 -9 -58 0 -65 -2 -65 -20 0 -47 32 -216 43 -227 7
-6 59 -37 116 -67 l104 -55 -7 37 c-10 56 -26 150 -36 217 -5 33 -14 89 -20
125 -6 36 -15 93 -20 128 -6 34 -14 90 -20 125 -5 34 -14 91 -20 127 -6 36
-15 92 -20 125 -5 33 -14 89 -20 125 -6 36 -15 92 -20 125 -5 33 -14 89 -20
125 -6 36 -15 94 -21 130 -5 36 -14 94 -20 130 -6 36 -14 90 -19 120 -5 30
-13 82 -19 115 -42 259 -49 309 -44 318 2 4 68 7 146 8 301 1 466 46 673 187
86 58 226 186 277 254 39 50 121 198 135 243 7 22 17 49 22 60 26 63 50 195
50 271 0 69 -4 77 -55 110 -28 18 -61 19 -914 24 l-885 5 -66 175 c-37 96 -70
184 -74 195 -32 85 -68 180 -88 234 -24 67 -77 131 -108 131 -11 0 -22 5 -25
10 -16 26 -105 -1 -151 -45 -26 -25 -94 -168 -94 -198 0 -4 -8 -26 -19 -50
-10 -23 -24 -58 -31 -77 -7 -19 -18 -48 -25 -65 -14 -32 -40 -101 -85 -230
l-29 -80 -212 0 -213 0 -16 45 c-21 56 -25 67 -61 160 -16 41 -29 78 -29 83 0
4 -9 26 -19 50 -11 23 -26 62 -34 87 -17 50 -62 169 -82 215 -18 40 -73 95
-96 95 -10 0 -21 5 -24 10 -8 13 -51 11 -92 -4z m70 -278 c8 -18 20 -49 27
-68 7 -19 16 -44 20 -55 4 -11 17 -46 29 -77 12 -32 30 -84 42 -115 12 -32 25
-67 29 -78 5 -11 21 -55 36 -98 26 -76 26 -78 8 -98 -71 -80 -329 -84 -411 -7
-23 22 -31 75 -14 94 4 5 36 81 71 169 34 88 70 178 80 200 9 22 28 68 41 103
13 34 25 62 26 62 1 0 8 -15 16 -32z m1310 -246 c59 -147 107 -272 107 -279 0
-6 6 -13 12 -15 25 -9 -23 -60 -80 -86 -51 -24 -68 -27 -156 -25 -54 1 -104 7
-109 12 -6 6 -19 11 -29 11 -20 0 -88 57 -88 74 0 6 6 22 13 36 8 14 20 47 27
73 8 26 18 47 22 47 4 0 8 6 8 13 0 6 13 46 29 87 16 41 51 130 77 198 26 67
50 122 54 122 3 0 54 -120 113 -268z m-2113 -439 c0 -9 -4 -42 -10 -72 -5 -31
-12 -73 -15 -93 l-6 -38 -175 0 c-146 0 -181 -3 -204 -17 -45 -26 -51 -99 -11
-130 11 -9 66 -13 176 -13 88 0 166 -4 173 -8 10 -7 10 -20 2 -63 -6 -30 -15
-76 -20 -104 -5 -27 -14 -81 -21 -120 -6 -38 -17 -73 -23 -77 -17 -11 -210 -9
-285 3 -36 5 -97 15 -136 21 -242 39 -501 243 -609 480 -25 55 -66 197 -66
230 0 17 28 18 615 18 571 0 615 -1 615 -17z m4025 -20 c-17 -106 -64 -224
-127 -318 -82 -122 -243 -264 -362 -319 -111 -52 -308 -86 -497 -86 l-116 0
-11 53 c-6 28 -16 86 -22 127 -6 41 -14 86 -16 100 -17 83 -17 87 8 93 12 4
94 7 180 7 l157 0 20 29 c29 40 26 64 -10 100 l-30 31 -187 2 -187 3 -7 50
c-4 28 -10 76 -14 108 l-7 57 617 0 617 0 -6 -37z"/>
<path d="M2833 5393 c-52 -29 -74 -66 -75 -124 0 -66 38 -117 104 -138 41 -12
48 -12 91 7 57 25 87 70 87 131 0 108 -113 175 -207 124z"/>
<path d="M3885 5394 c-41 -21 -59 -42 -72 -86 -32 -108 75 -212 180 -175 50
18 78 47 93 97 35 118 -91 222 -201 164z"/>
<path d="M2635 4588 c-135 -24 -247 -124 -326 -288 -26 -54 -35 -86 -56 -204
-20 -108 -9 -186 41 -296 16 -36 34 -58 106 -130 62 -62 172 -130 209 -130 10
0 23 -6 29 -12 21 -21 1464 -31 1551 -12 139 31 274 121 350 234 44 66 84 178
76 213 -2 12 -7 61 -10 108 -7 108 -17 143 -75 264 -39 80 -140 189 -205 221
-68 33 -146 40 -290 27 -71 -6 -139 -14 -150 -17 -20 -5 -152 -36 -237 -55
-26 -6 -124 -11 -218 -11 -94 0 -192 5 -218 11 -100 23 -219 50 -252 59 -19 4
-82 11 -140 15 -58 3 -112 8 -120 9 -8 2 -37 -1 -65 -6z m206 -203 c52 -8 112
-19 134 -25 168 -44 290 -60 455 -60 171 0 233 8 450 60 25 5 94 18 154 27 90
13 117 14 155 4 112 -30 183 -135 221 -327 10 -52 10 -70 -4 -116 -29 -101
-111 -180 -231 -225 -46 -17 -98 -18 -715 -21 -482 -2 -680 0 -720 8 -120 26
-220 94 -260 177 -13 26 -27 56 -32 65 -11 24 -10 76 3 140 39 185 141 304
265 307 17 1 73 -6 125 -14z"/>
<path d="M2741 4213 c-55 -31 -81 -89 -81 -182 0 -62 5 -88 22 -120 31 -59 61
-75 136 -76 62 0 64 1 103 42 l39 42 0 107 c0 94 -3 112 -22 140 -29 43 -51
55 -112 61 -38 3 -60 0 -85 -14z"/>
<path d="M3965 4211 c-59 -40 -65 -56 -65 -179 0 -129 11 -156 74 -186 90 -42
189 3 215 99 25 93 7 196 -45 246 -29 28 -42 33 -91 36 -46 3 -64 0 -88 -16z"/>
<path d="M5101 3338 c14 -83 29 -177 40 -248 5 -36 14 -94 20 -130 6 -36 14
-90 19 -120 19 -128 29 -187 35 -217 10 -43 4 -43 -227 -40 -102 1 -184 -1
-181 -6 10 -17 50 -176 45 -181 -3 -3 133 -6 303 -6 l308 0 -7 33 c-4 17 -12
61 -17 97 -6 36 -15 92 -20 125 -6 33 -14 87 -19 120 -5 33 -14 89 -20 125 -6
36 -15 94 -21 130 -5 36 -14 94 -20 130 -6 36 -14 88 -18 117 -4 29 -10 55
-13 59 -4 3 -47 17 -95 31 -48 13 -95 27 -104 29 -14 5 -15 -1 -8 -48z"/>
<path d="M1698 1585 c-172 -38 -294 -168 -327 -351 -15 -80 -14 -125 3 -206
39 -188 157 -301 352 -337 77 -14 124 -14 199 3 75 16 98 28 130 70 29 38 31
65 10 104 -28 53 -31 55 -54 43 -49 -26 -60 -29 -113 -41 -43 -10 -63 -10 -94
0 -96 29 -137 63 -171 139 -20 45 -24 234 -5 253 7 7 12 19 12 27 0 24 48 79
83 95 72 33 113 40 164 26 26 -8 63 -22 81 -32 18 -10 41 -18 50 -18 25 0 66
74 58 104 -26 104 -201 160 -378 121z"/>
<path d="M4199 1585 c-233 -51 -370 -270 -330 -527 33 -207 151 -329 357 -367
79 -14 115 -14 195 3 81 17 101 27 134 70 29 38 31 65 10 104 -27 51 -31 54
-51 44 -51 -26 -128 -52 -156 -52 -43 0 -131 33 -163 61 -59 52 -79 109 -79
226 0 67 4 107 12 115 7 7 12 20 12 30 0 35 71 94 135 113 52 15 67 15 115 4
30 -7 57 -15 60 -18 3 -3 19 -14 37 -24 29 -16 33 -16 47 -1 35 34 48 73 36
108 -32 98 -200 149 -371 111z"/>
<path d="M4763 1587 l-43 -10 0 -399 c0 -329 3 -404 15 -427 20 -39 86 -57
163 -45 l57 9 3 165 c2 116 6 166 15 172 6 4 69 8 140 8 l127 0 0 -141 c0
-162 9 -186 79 -209 38 -12 128 -9 151 5 6 4 10 161 10 419 0 464 5 432 -77
456 -34 10 -54 10 -103 0 l-60 -13 0 -168 0 -169 -140 0 -140 0 0 148 c0 124
-3 150 -18 168 -36 42 -93 52 -179 31z"/>
<path d="M2490 1565 c-84 -23 -87 -25 -103 -73 -9 -26 -35 -99 -57 -162 -52
-144 -60 -170 -100 -300 -17 -58 -36 -115 -41 -128 -5 -13 -9 -36 -9 -52 0
-16 -4 -32 -10 -35 -33 -21 11 -112 57 -118 12 -2 26 -6 29 -10 12 -12 70 -8
107 8 27 11 36 21 40 47 10 57 23 114 31 126 5 8 48 12 136 12 l129 0 12 -42
c22 -81 37 -113 61 -131 28 -21 98 -33 125 -22 10 5 29 10 42 12 45 8 53 25
35 85 -9 29 -20 63 -25 76 -5 13 -9 33 -9 45 0 13 -4 27 -8 33 -5 5 -14 34
-21 64 -7 30 -16 66 -21 80 -4 14 -13 43 -19 65 -13 47 -40 138 -75 253 -40
131 -52 145 -151 171 -50 13 -97 12 -155 -4z m95 -225 c6 -10 43 -139 51 -180
3 -14 10 -35 16 -47 21 -43 6 -53 -81 -53 -47 0 -83 4 -87 11 -7 12 77 279 88
279 4 0 10 -4 13 -10z"/>
<path d="M3089 1564 c-31 -16 -44 -63 -33 -121 11 -61 16 -63 130 -63 l103 0
3 -313 c3 -344 1 -330 66 -356 31 -13 139 -10 163 5 5 3 9 146 9 335 l0 329
88 0 c50 0 100 5 115 13 47 22 60 86 33 152 l-15 35 -318 -1 c-251 -1 -324 -4
-344 -15z"/>
</g>
</svg>
